{
  "accessors": [
    {
      "bufferView": 2,
      "componentType": 5126,
      "count": 28,
      "max": [
        0.6848160028457642,
        0.17311300337314606,
        0.18275199830532074
      ],
      "min": [
        0.5008159875869751,
        -1.3368680477142334,
        0.04850900173187256
      ],
      "type": "VEC3"
    },
    {
      "bufferView": 0,
      "componentType": 5125,
      "count": 48,
      "type": "SCALAR"
    },
    {
      "bufferView": 2,
      "byteOffset": 336,
      "componentType": 5126,
      "count": 7997,
      "max": [
        0.7429890036582947,
        1.9854329824447632,
        1.174239993095398
      ],
      "min": [
        -0.6929590106010437,
        -2.028830051422119,
        -0.04195300117135048
      ],
      "type": "VEC3"
    },
    {
      "bufferView": 2,
      "byteOffset": 96300,
      "componentType": 5126,
      "count": 7997,
      "max": [
        0.9999992847442627,
        0.9999946355819702,
        0.9999996423721313
      ],
      "min": [
        -0.9999990463256836,
        -0.9999898672103882,
        -0.9999996423721313
      ],
      "type": "VEC3"
    },
    {
      "bufferView": 1,
      "componentType": 5126,
      "count": 7997,
      "max": [
        1.0,
        1.0
      ],
      "min": [
        0.0,
        0.0
      ],
      "type": "VEC2"
    },
    {
      "bufferView": 0,
      "byteOffset": 192,
      "componentType": 5125,
      "count": 10320,
      "type": "SCALAR"
    },
    {
      "bufferView": 2,
      "byteOffset": 192264,
      "componentType": 5126,
      "count": 65532,
      "max": [
        0.7038360238075256,
        1.9968949556350708,
        1.901986002922058
      ],
      "min": [
        -0.6555169820785522,
        -1.9260809421539307,
        0.18637900054454803
      ],
      "type": "VEC3"
    },
    {
      "bufferView": 2,
      "byteOffset": 978648,
      "componentType": 5126,
      "count": 65532,
      "max": [
        0.9999970197677612,
        0.9999969005584717,
        0.9997922778129578
      ],
      "min": [
        -0.9999961853027344,
        -0.9999638795852661,
        -0.9999761581420898
      ],
      "type": "VEC3"
    },
    {
      "bufferView": 1,
      "byteOffset": 63976,
      "componentType": 5126,
      "count": 65532,
      "max": [
        1.0000979900360107,
        1.0
      ],
      "min": [
        -8.900000102585182e-05,
        0.0
      ],
      "type": "VEC2"
    },
    {
      "bufferView": 0,
      "byteOffset": 41472,
      "componentType": 5125,
      "count": 327474,
      "type": "SCALAR"
    },
    {
      "bufferView": 2,
      "byteOffset": 1765032,
      "componentType": 5126,
      "count": 65532,
      "max": [
        0.4005410075187683,
        0.5652649998664856,
        1.582129955291748
      ],
      "min": [
        -0.5484259724617004,
        -0.9821540117263794,
        0.8339800238609314
      ],
      "type": "VEC3"
    },
    {
      "bufferView": 2,
      "byteOffset": 2551416,
      "componentType": 5126,
      "count": 65532,
      "max": [
        0.9999750852584839,
        0.9999117851257324,
        0.9992630481719971
      ],
      "min": [
        -0.9999933242797852,
        -0.999985933303833,
        -0.99991774559021
      ],
      "type": "VEC3"
    },
    {
      "bufferView": 1,
      "byteOffset": 588232,
      "componentType": 5126,
      "count": 65532,
      "max": [
        1.0,
        1.0
      ],
      "min": [
        0.0,
        -0.16550999879837036
      ],
      "type": "VEC2"
    },
    {
      "bufferView": 0,
      "byteOffset": 1351368,
      "componentType": 5125,
      "count": 333984,
      "type": "SCALAR"
    },
    {
      "bufferView": 2,
      "byteOffset": 3337800,
      "componentType": 5126,
      "count": 65532,
      "max": [
        0.733843982219696,
        1.9860320091247559,
        1.5914280414581299
      ],
      "min": [
        -0.6762470006942749,
        -2.0342400074005127,
        -0.05611100047826767
      ],
      "type": "VEC3"
    },
    {
      "bufferView": 2,
      "byteOffset": 4124184,
      "componentType": 5126,
      "count": 65532,
      "max": [
        0.9999879598617554,
        0.999935507774353,
        0.9999997615814209
      ],
      "min": [
        -0.9999971389770508,
        -0.9999966621398926,
        -0.9999998807907104
      ],
      "type": "VEC3"
    },
    {
      "bufferView": 1,
      "byteOffset": 1112488,
      "componentType": 5126,
      "count": 65532,
      "max": [
        1.0,
        1.0
      ],
      "min": [
        0.0,
        0.0
      ],
      "type": "VEC2"
    },
    {
      "bufferView": 0,
      "byteOffset": 2687304,
      "componentType": 5125,
      "count": 298413,
      "type": "SCALAR"
    },
    {
      "bufferView": 2,
      "byteOffset": 4910568,
      "componentType": 5126,
      "count": 18902,
      "max": [
        0.5754370093345642,
        1.691565990447998,
        1.570559024810791
      ],
      "min": [
        -0.6573820114135742,
        -0.7999770045280457,
        0.6700230240821838
      ],
      "type": "VEC3"
    },
    {
      "bufferView": 2,
      "byteOffset": 5137392,
      "componentType": 5126,
      "count": 18902,
      "max": [
        0.9999936819076538,
        0.9984177350997925,
        0.9998391270637512
      ],
      "min": [
        -0.9999396800994873,
        -0.9999135732650757,
        -0.9997410178184509
      ],
      "type": "VEC3"
    },
    {
      "bufferView": 1,
      "byteOffset": 1636744,
      "componentType": 5126,
      "count": 18902,
      "max": [
        1.0,
        1.0
      ],
      "min": [
        0.0,
        -0.16550999879837036
      ],
      "type": "VEC2"
    },
    {
      "bufferView": 0,
      "byteOffset": 3880956,
      "componentType": 5125,
      "count": 87183,
      "type": "SCALAR"
    }
  ],
  "asset": {
    "extras": {
      "author": "FernandoCaprio (https://sketchfab.com/FernandoCaprio)",
      "license": "CC-BY-4.0 (http://creativecommons.org/licenses/by/4.0/)",
      "source": "https://sketchfab.com/3d-models/nike-shoes-2e54adf76ecd4db5b3ad2ad4fbb15582",
      "title": "Nike Shoes"
    },
    "generator": "Sketchfab-12.66.0",
    "version": "2.0"
  },
  "bufferViews": [
    {
      "buffer": 0,
      "byteLength": 4229688,
      "name": "floatBufferViews",
      "target": 34963
    },
    {
      "buffer": 0,
      "byteLength": 1787960,
      "byteOffset": 4229688,
      "byteStride": 8,
      "name": "floatBufferViews",
      "target": 34962
    },
    {
      "buffer": 0,
      "byteLength": 5364216,
      "byteOffset": 6017648,
      "byteStride": 12,
      "name": "floatBufferViews",
      "target": 34962
    }
  ],
  "buffers": [
    {
      "byteLength": 11381864,
      "uri": "scene.bin"
    }
  ],
  "materials": [
    {
      "doubleSided": true,
      "name": "Material",
      "pbrMetallicRoughness": {
        "metallicFactor": 0.0,
        "roughnessFactor": 0.6
      }
    }
  ],
  "meshes": [
    {
      "name": "Object_0",
      "primitives": [
        {
          "attributes": {
            "POSITION": 0
          },
          "indices": 1,
          "material": 0,
          "mode": 1
        }
      ]
    },
    {
      "name": "Object_1",
      "primitives": [
        {
          "attributes": {
            "NORMAL": 3,
            "POSITION": 2,
            "TEXCOORD_0": 4
          },
          "indices": 5,
          "material": 0,
          "mode": 4
        }
      ]
    },
    {
      "name": "Object_2",
      "primitives": [
        {
          "attributes": {
            "NORMAL": 7,
            "POSITION": 6,
            "TEXCOORD_0": 8
          },
          "indices": 9,
          "material": 0,
          "mode": 4
        }
      ]
    },
    {
      "name": "Object_3",
      "primitives": [
        {
          "attributes": {
            "NORMAL": 11,
            "POSITION": 10,
            "TEXCOORD_0": 12
          },
          "indices": 13,
          "material": 0,
          "mode": 4
        }
      ]
    },
    {
      "name": "Object_4",
      "primitives": [
        {
          "attributes": {
            "NORMAL": 15,
            "POSITION": 14,
            "TEXCOORD_0": 16
          },
          "indices": 17,
          "material": 0,
          "mode": 4
        }
      ]
    },
    {
      "name": "Object_5",
      "primitives": [
        {
          "attributes": {
            "NORMAL": 19,
            "POSITION": 18,
            "TEXCOORD_0": 20
          },
          "indices": 21,
          "material": 0,
          "mode": 4
        }
      ]
    }
  ],
  "nodes": [
    {
      "children": [
        1
      ],
      "matrix": [
        1.0,
        0.0,
        0.0,
        0.0,
        0.0,
        2.220446049250313e-16,
        -1.0,
        0.0,
        0.0,
        1.0,
        2.220446049250313e-16,
        0.0,
        0.0,
        0.0,
        0.0,
        1.0
      ],
      "name": "Sketchfab_model"
    },
    {
      "children": [
        2,
        3,
        4,
        5,
        6,
        7
      ],
      "name": "NikeShoes.obj.cleaner.materialmerger.gles"
    },
    {
      "mesh": 0,
      "name": "Object_2"
    },
    {
      "mesh": 1,
      "name": "Object_3"
    },
    {
      "mesh": 2,
      "name": "Object_4"
    },
    {
      "mesh": 3,
      "name": "Object_5"
    },
    {
      "mesh": 4,
      "name": "Object_6"
    },
    {
      "mesh": 5,
      "name": "Object_7"
    }
  ],
  "scene": 0,
  "scenes": [
    {
      "name": "Sketchfab_Scene",
      "nodes": [
        0
      ]
    }
  ]
}
